{"title":"Aliens in the Attic (2009)","uid":5468905,"size":1578744530,"categoryP":"video","categoryS":"movies","magnet":"?xt=urn:btih:89f32a5838d5e5b1ccf53bdc0ff8ef892818f121&amp;dn=Aliens+in+the+Attic+%282009%29&amp;tr=udp%3A%2F%2Ftracker.openbittorrent.com%3A80&amp;tr=udp%3A%2F%2Fopen.demonii.com%3A1337&amp;tr=udp%3A%2F%2Ftracker.coppersurfer.tk%3A6969&amp;tr=udp%3A%2F%2Fexodus.desync.com%3A6969","seeders":0,"leechers":0,"uploader":"AMHJ","files":-1,"time":1269775242,"description":"IMDB:   &lt;a href=&quot; http://www.imdb.com/title/tt0775552/&quot; rel=&quot;nofollow&quot; target=&quot;_NEW&quot;&gt; http://www.imdb.com/title/tt0775552/&lt;/a&gt;\n\nSource = Retail\n\nGeneral\nComplete name                    : Aliens in the attic.avi\nFormat                           : DivX\nFormat/Info                      : Hack of AVI\nFile size                        : 1.46 GiB\nDuration                         : 1h 22mn\nOverall bit rate                 : 2 537 Kbps\n\nVideo\nID                               : 0\nFormat                           : MPEG-4 Visual\nFormat profile                   : AdvancedSimple@L5\nFormat settings, BVOP            : Yes\nFormat settings, QPel            : No\nFormat settings, GMC             : No warppoints\nFormat settings, Matrix          : Custom\nMuxing mode                      : Packed bitstream\nCodec ID                         : DX50\nCodec ID/Hint                    : DivX 5\nDuration                         : 1h 22mn\nBit rate                         : 2 079 Kbps\nWidth                            : 720 pixels\nHeight                           : 400 pixels\nDisplay aspect ratio             : 16:9\nFrame rate                       : 25.000 fps\nResolution                       : 24 bits\nColorimetry                      : 4:2:0\nScan type                        : Progressive\nBits/(Pixel*Frame)               : 0.289\nStream size                      : 1.19 GiB (82%)\nTitle                            : Video \nWriting library                  : XviD 1.2.1 \n\nAudio\nID                               : 1\nFormat                           : AC-3\nFormat/Info                      : Audio Coding 3\nCodec ID                         : 2000\nDuration                         : 1h 22mn\nBit rate mode                    : Constant\nBit rate                         : 448 Kbps\nChannel(s)                       : 6 channels\nChannel positions                : Front: L C R, Surround: L R, LFE\nSampling rate                    : 48.0 KHz\nStream size                      : 264 MiB (18%)\nAlignment                        : Split accross interleaves\nInterleave, duration             : 40 ms (1.00 video frame)\nInterleave, preload duration     : 500 ms\nTitle                            : Audio \n\nSubtitels: Dutch, English, French, German","torrent":{"xt":"urn:btih:89f32a5838d5e5b1ccf53bdc0ff8ef892818f121","amp;dn":"Aliens+in+the+Attic+%282009%29","amp;tr":["udp%3A%2F%2Ftracker.openbittorrent.com%3A80","udp%3A%2F%2Fopen.demonii.com%3A1337","udp%3A%2F%2Ftracker.coppersurfer.tk%3A6969","udp%3A%2F%2Fexodus.desync.com%3A6969"],"infoHash":"89f32a5838d5e5b1ccf53bdc0ff8ef892818f121","infoHashBuffer":{"type":"Buffer","data":[137,243,42,88,56,213,229,177,204,245,59,220,15,248,239,137,40,24,241,33]},"announce":[],"urlList":[]}}